<svg width="48" height="48" viewBox="0 0 48 48" fill="none" xmlns="http://www.w3.org/2000/svg">
<g clip-path="url(#clip0_2_3778)">
<rect width="48" height="48" rx="24" fill="white"/>
<path d="M25.4946 8.35229L25.9429 8.77222L26.0249 8.84937L26.1372 8.83862L26.6978 8.78687L28.0444 8.82788L28.689 9.37378L28.7192 9.39917L28.7544 9.41382L29.3589 9.66577L29.7622 9.95288L30.1333 10.2664L30.1929 10.3171L30.27 10.325L30.6909 10.3669L30.7368 10.906L30.7397 10.9431L30.7534 10.9763L30.8794 11.2957L30.9663 11.5173L31.1919 11.4412L31.5073 11.3337L31.562 11.5261L31.5698 11.5535L31.5835 11.5789L31.897 12.1531L31.9507 12.2507L32.0591 12.2761L32.6538 12.4148L32.6138 12.7126L32.6108 12.7371L32.6118 12.7615L32.6245 12.9666L32.6372 13.1726L32.8423 13.199L33.2134 13.2478L33.6021 13.9275C33.5996 13.9714 33.5972 14.0333 33.5942 14.1082C33.5881 14.264 33.5834 14.4788 33.5864 14.7146C33.5895 14.9501 33.6011 15.2102 33.6294 15.4548C33.6573 15.6956 33.7028 15.9381 33.7817 16.1306C33.9214 16.4712 33.9806 16.9076 33.978 17.3621C33.9755 17.8138 33.9122 18.2664 33.8228 18.6306L33.8218 18.6345C33.7065 19.1343 33.6826 19.6512 33.7485 20.1599L33.481 21.1492L33.0522 22.7195L32.8931 23.3015L33.4175 23.0027L33.8433 22.7595C33.8479 22.7611 33.853 22.7627 33.8579 22.7644C33.9241 22.7871 34.0083 22.8214 34.0884 22.8669C34.2678 22.969 34.3281 23.0679 34.3169 23.1609C34.2878 23.3977 34.2119 23.7237 34.1235 24.0642C34.0379 24.3942 33.9383 24.7477 33.8755 25.0027C33.8086 25.2745 33.7615 25.6291 33.7241 25.9353C33.6847 26.2584 33.657 26.5097 33.6304 26.6179C33.5993 26.7441 33.5076 27.1156 33.3638 27.4763C33.2916 27.6572 33.2095 27.8265 33.1216 27.9578C33.032 28.0915 32.9554 28.1547 32.9028 28.1765C32.6088 28.268 32.2953 28.2706 32.0005 28.1814L31.7358 28.1013L31.6831 28.3728L31.6821 28.3748L31.6772 28.4041C31.6732 28.4247 31.6664 28.455 31.6587 28.4939C31.6432 28.5717 31.6209 28.6837 31.5933 28.8191C31.538 29.09 31.4622 29.4553 31.3784 29.8337C31.2945 30.2127 31.2037 30.6028 31.1187 30.9236C31.0761 31.084 31.0352 31.2244 30.9985 31.3367C30.9601 31.4544 30.9315 31.5249 30.9146 31.5544C30.6484 32.0191 30.4968 32.3894 30.4116 32.6482C30.3691 32.7774 30.3433 32.8789 30.3276 32.95C30.3198 32.9855 30.3144 33.0139 30.311 33.0339C30.3098 33.0411 30.3089 33.0473 30.3081 33.0525C30.2064 33.5918 30.2 34.0494 30.1782 34.5671C30.141 35.1388 30.158 35.9145 30.2231 36.6052C30.2558 36.9509 30.3004 37.2811 30.3589 37.5564C30.4149 37.8201 30.4906 38.07 30.6001 38.2283L30.6421 38.2888L30.7095 38.3171C31.0707 38.4678 31.6315 38.5961 32.2915 38.7312C32.9632 38.8687 33.749 39.0152 34.5991 39.2009C36.2975 39.5719 38.199 40.0907 39.7495 40.9626C42.805 42.681 43.6766 46.0034 44.4927 50.0095C44.8989 52.0036 45.3048 54.0055 45.6089 55.5085C45.7609 56.2598 45.8874 56.887 45.9761 57.3259C46.0072 57.4801 46.034 57.6115 46.0552 57.7166H1.63428C1.66136 57.6022 1.69596 57.4585 1.73584 57.2888C1.84517 56.8238 1.99885 56.1649 2.17627 55.3894C2.53111 53.8385 2.98043 51.8195 3.36084 49.9519C4.17303 45.965 5.27865 42.7566 8.34131 41.0339C9.89079 40.1625 11.8024 39.6475 13.5972 39.2722C14.4939 39.0847 15.3531 38.934 16.1226 38.7888C16.8865 38.6447 17.5669 38.5057 18.0884 38.3435L18.1499 38.324L18.1948 38.2781C18.5143 37.946 18.6058 37.5517 18.6372 37.0261C18.6528 36.7648 18.6537 36.4575 18.6558 36.0974C18.6578 35.7348 18.6602 35.3112 18.6782 34.8093C18.6976 34.2664 18.5767 33.6947 18.4556 33.2683C18.3944 33.0531 18.3318 32.8701 18.2847 32.741C18.2611 32.6763 18.2412 32.6243 18.2271 32.5886C18.22 32.571 18.2144 32.5572 18.2104 32.5476C18.2086 32.543 18.2067 32.5395 18.2056 32.5369C18.205 32.5355 18.2049 32.5337 18.2046 32.533L18.2036 32.532L18.187 32.4919L18.1577 32.4607L17.9976 32.2712C17.8468 32.0777 17.7182 31.8663 17.6147 31.6414C17.4365 31.2004 17.1633 30.381 16.9321 29.6638C16.8171 29.3069 16.7132 28.9779 16.6382 28.738C16.6007 28.6183 16.5702 28.5205 16.5493 28.4529C16.5389 28.4191 16.5304 28.3926 16.5249 28.3748C16.5222 28.3658 16.5204 28.3588 16.519 28.3542C16.5184 28.352 16.5174 28.3505 16.5171 28.3494V28.3474L16.4751 28.2097L16.3345 28.1775L16.1362 28.1277C15.9388 28.0739 15.744 28.0088 15.5532 27.9333L15.5503 27.9324L15.4985 27.906C15.3792 27.8331 15.2726 27.6709 15.186 27.4343C15.0902 27.1722 15.0521 26.9216 15.0142 26.7673C14.9836 26.6429 14.9058 26.296 14.8188 25.9109C14.7327 25.5291 14.6382 25.112 14.5747 24.8542C14.5037 24.5661 14.3291 24.2318 14.187 23.9431C14.0361 23.6364 13.9189 23.3755 13.8911 23.1716C13.8923 23.1711 13.8936 23.1703 13.895 23.1697C13.9497 23.1459 14.0518 23.1312 14.1919 23.1335C14.3245 23.1358 14.4633 23.1528 14.5708 23.1697C14.6237 23.178 14.6681 23.1861 14.6987 23.1921C14.7139 23.1951 14.7261 23.1973 14.7339 23.199C14.7374 23.1997 14.74 23.2006 14.7417 23.2009H14.7437L14.9907 23.2566L15.0435 23.0095L15.2583 22.0095L15.2788 21.9148L15.23 21.8318L14.8354 21.1492L14.8413 20.2878C14.8418 20.2797 14.8434 20.2684 14.8442 20.2546C14.846 20.2238 14.848 20.1791 14.8501 20.1238C14.8543 20.013 14.8575 19.8575 14.855 19.6775C14.85 19.3205 14.8214 18.8522 14.7202 18.4421C14.6386 18.1113 14.6615 17.716 14.7505 17.2966C14.8389 16.8798 14.9889 16.4575 15.1431 16.0818L15.145 16.0759C15.3658 15.4925 15.5346 14.8891 15.6479 14.2742L15.6616 14.196L15.6284 14.1238L15.437 13.7078C15.4355 13.68 15.4347 13.6411 15.4331 13.5955C15.4298 13.5001 15.4279 13.3788 15.4331 13.2673C15.4338 13.2519 15.4351 13.2373 15.436 13.2234C15.5267 13.231 15.6136 13.2091 15.6812 13.1804C15.8084 13.1264 15.9256 13.0302 16.0151 12.9451C16.1087 12.8562 16.192 12.7607 16.2505 12.6892C16.2799 12.6532 16.304 12.6224 16.3208 12.6003C16.3292 12.5893 16.3356 12.5803 16.3403 12.574C16.3427 12.5708 16.3449 12.568 16.3462 12.5662L16.3472 12.5642L16.3481 12.5632L16.4858 12.3718L16.3276 12.2419L16.3315 12.24L16.3647 12.2175L16.3892 12.1863L16.7856 11.6697L17.0425 11.4363L17.0532 11.4255L17.063 11.4148L17.2612 11.1843L17.5239 11.0046L17.938 10.8816L18.0981 10.8337L18.1157 10.6687L18.1479 10.3572L18.4487 10.1033L18.481 10.0769L18.5024 10.0398L18.6665 9.76147L19.6772 9.83569L19.9067 9.85229L19.9429 9.62573L20.0278 9.08179L20.8843 9.21948L20.9565 9.2312L21.0239 9.2019L21.8892 8.82397L22.4399 8.65601L22.8784 8.75562L23.0776 8.80054L23.1616 8.61401L23.3833 8.11597L23.5142 8.1853L23.8804 8.37671V8.25269L24.3491 8.41577L24.563 8.49097L24.6577 8.28491L24.7778 8.02319L25.4946 8.35229Z" fill="white" stroke="#E5E5E5" stroke-width="0.5"/>
<mask id="mask0_2_3778" style="mask-type:luminance" maskUnits="userSpaceOnUse" x="1" y="7" width="46" height="51">
<path fill-rule="evenodd" clip-rule="evenodd" d="M3.11628 49.9022C3.92882 45.9134 5.04992 42.5981 8.21889 40.8158C11.3879 39.0335 15.991 38.7341 18.0146 38.1046C18.5287 37.5702 18.3562 36.8245 18.4288 34.8008C18.465 33.7908 17.9734 32.6292 17.9734 32.6292C17.7324 32.3654 17.5334 32.0641 17.3838 31.7365C17.0194 30.8356 16.2781 28.4208 16.2781 28.4208C16.0003 28.3561 15.7275 28.2708 15.4617 28.1658C14.9595 27.9745 14.8339 27.0818 14.7711 26.8268C14.7084 26.5717 14.4571 25.4236 14.3315 24.9139C14.2059 24.4042 13.7037 23.7023 13.6409 23.1922C13.5782 22.6821 14.799 22.9573 14.799 22.9573L15.014 21.9569L14.585 21.2155L14.5914 20.2858C14.5914 20.2858 14.6664 19.2673 14.4775 18.5022C14.2886 17.7371 14.5974 16.7521 14.9114 15.987C15.1269 15.4174 15.291 14.8288 15.4016 14.2284L15.191 13.7706C15.191 13.7706 15.1142 12.6792 15.3577 12.9261C15.6013 13.1729 16.1455 12.4169 16.1455 12.4169L15.9103 12.2246L16.1908 12.0333L16.6022 11.4996L16.8738 11.2513L17.0941 10.9969L17.4146 10.7771L17.867 10.6421L17.9104 10.2317L18.2871 9.91282L18.5306 9.50174L19.6955 9.58658L19.8211 8.79546L20.9242 8.97255L21.8033 8.58992L22.4312 8.39867L22.933 8.51197L23.2636 7.77139L23.6304 7.96342V7.90145L24.4308 8.18014L24.6568 7.69214L25.6377 8.14259L26.1143 8.59005L26.6908 8.53704L28.1408 8.58109L28.8508 9.18342L29.4799 9.44522L29.9183 9.75704L30.295 10.0759L30.9229 10.1397L30.9861 10.8852L31.1116 11.204L31.677 11.0125L31.8026 11.4588L32.1166 12.0327L32.9328 12.2239L32.8618 12.7465L32.8745 12.9513L33.3686 13.0162L33.857 13.8696C33.857 13.8696 33.749 15.392 34.0132 16.0358C34.327 16.8009 34.2535 17.9252 34.0657 18.6904C33.9531 19.1782 33.9316 19.6833 34.0024 20.1793L33.7223 21.215L33.2933 22.7858L33.812 22.4902C33.812 22.4902 34.6282 22.6816 34.5655 23.1918C34.5027 23.7021 34.2439 24.5519 34.1183 25.062C33.9927 25.5721 33.9364 26.4227 33.8736 26.6777C33.8109 26.9328 33.4904 28.2216 32.9881 28.413C32.6433 28.5227 32.2746 28.5252 31.9283 28.4204C31.9283 28.4204 31.3784 31.2473 31.1314 31.6783C30.6152 32.5793 30.5539 33.0993 30.5539 33.0993C30.4559 33.6185 30.4503 34.0551 30.428 34.5834C30.3556 35.6958 30.4914 37.6331 30.8056 38.0863C32.1449 38.645 36.7028 38.9624 39.8719 40.7446C43.041 42.5268 43.9255 45.9713 44.7381 49.9601C45.5506 53.9489 46.3606 57.967 46.3606 57.967H1.31787C1.31787 57.9675 2.35661 53.6317 3.11628 49.9022Z" fill="white"/>
</mask>
<g mask="url(#mask0_2_3778)">
<path opacity="0.902386" d="M14.647 39.1764L16.8239 31.511C16.8239 31.511 19.3028 34.6273 20.971 35.7762C22.1727 36.6038 23.8039 36.8609 24.6224 36.9401C25.3425 36.8609 26.7818 36.6038 27.8694 35.7762C29.3793 34.6273 31.6942 31.511 31.6942 31.511L34.7646 39.7058L32.8234 43.5882L24.3529 46.4117L18.1764 44.1176L14.647 39.1764Z" fill="url(#paint0_linear_2_3778)"/>
<path d="M8.58643 32.2581C8.58643 32.2581 12.0049 35.3687 17.3101 35.9358C16.798 36.5448 16.8925 37.289 17.5415 37.9758L16.2349 38.6135C16.2432 38.6303 16.9583 40.0689 18.4985 41.2747C20.1296 42.5429 24.3268 44.7937 24.3823 44.8235C24.3823 44.8235 28.625 42.5514 30.2671 41.2747C31.8027 40.0725 32.5183 38.6387 32.5308 38.6135L31.52 38.1213C32.496 37.3334 32.8538 36.5009 32.6567 36.0491C40.241 33.9917 43.5176 36.3571 44.479 40.1155C46.1487 46.613 49.7319 65.0581 49.7485 65.1438L-0.652832 62.1311C-0.652832 62.1311 1.46541 46.1253 1.53662 39.5481C1.62559 36.0282 8.54085 32.2827 8.58643 32.2581Z" fill="#CCCCCC"/>
<path fill-rule="evenodd" clip-rule="evenodd" d="M17.2985 15.7088L16.5475 17.7644C16.5475 17.7644 16.3003 19.7438 16.3003 20.0153C16.3003 20.2869 16.4213 22.4431 16.4213 22.4431L16.3403 24.6899C16.3403 24.6899 14.0629 21.6361 13.2629 21.2299C12.4628 20.8238 6.83105 19.1617 6.83105 19.1617L14.8313 7.92312C14.8313 7.92312 24.2322 7.17813 24.7655 7.04262C25.2989 6.90711 31.2324 6.97493 32.3657 7.24569C33.4991 7.51646 38.2326 9.34451 38.9659 10.5632C39.6993 11.7819 42.0327 18.7554 42.0327 18.7554C42.0327 18.7554 37.9659 24.3071 37.4992 24.1716C37.0325 24.0361 34.4428 22.3755 34.4428 22.3755L33.6991 21.9704L33.1588 22.6406L32.368 23.5325L31.959 24.0546L31.7872 21.8297C31.7872 21.8297 31.4064 18.9872 31.2064 18.6487C31.0064 18.3103 30.9399 16.7369 30.9399 16.3983C30.9399 16.0597 29.7318 14.9711 29.7318 14.9711C29.7318 14.9711 29.6432 14.3826 28.5416 14.4537C27.5517 14.5176 26.3496 14.7229 24.993 14.7229C24.0517 14.7229 23.4876 14.8383 22.8033 14.6544C21.6365 14.3407 21.1825 14.3074 21.1825 14.3074L19.1824 14.1525L17.2985 15.7088Z" fill="#CCCCCC"/>
</g>
</g>
<rect x="0.5" y="0.5" width="47" height="47" rx="23.5" stroke="#CCCCCC"/>
<defs>
<linearGradient id="paint0_linear_2_3778" x1="24.4687" y1="43.4703" x2="24.4631" y2="32.6472" gradientUnits="userSpaceOnUse">
<stop stop-color="white"/>
<stop offset="0.294995" stop-color="#FDFDFD"/>
<stop offset="0.474122" stop-color="#F6F6F6"/>
<stop offset="0.709948" stop-color="#EFEFEF"/>
<stop offset="1" stop-color="#EBE8E8"/>
</linearGradient>
<clipPath id="clip0_2_3778">
<rect width="48" height="48" rx="24" fill="white"/>
</clipPath>
</defs>
</svg>
