<svg preserveAspectRatio="none" width="100%" height="100%" overflow="visible" style="display: block;" viewBox="0 0 185 32" fill="none" xmlns="http://www.w3.org/2000/svg">
<path id="Logo" fill-rule="evenodd" clip-rule="evenodd" d="M65.0943 5.16157C65.0519 4.79268 64.9038 4.7107 64.5227 4.7107H59.9291C59.6539 4.7107 59.4422 4.77219 59.3364 5.18207C58.7648 7.1905 56.5209 14.9783 56.5209 14.9783C56.1822 16.1874 55.9282 17.3146 55.7376 18.3393C55.6953 18.0729 55.653 17.827 55.5895 17.6015C55.5471 17.3556 55.4836 17.1302 55.4413 16.8637C55.3989 16.6178 55.3354 16.3514 55.2508 16.0645C55.1873 15.7775 55.0814 15.4496 54.9756 15.0603C54.9756 15.0603 52.7952 7.14951 52.2448 5.16157C52.0966 4.7107 51.8426 4.7107 51.5462 4.7107H46.9737C46.6139 4.7107 46.508 4.89515 46.4868 5.18207C46.2116 7.98977 44.8145 22.1512 44.5393 24.9179C44.5181 25.2663 44.7087 25.3688 45.0685 25.3893H48.265C48.6037 25.3893 48.8366 25.3278 48.8789 24.9384C49.0271 22.9095 49.5987 14.5889 49.5987 14.5889C49.641 13.9536 49.6622 13.3387 49.6833 12.7239C49.7257 12.1501 49.7469 11.5762 49.7469 11.0024C49.8527 11.5557 49.9797 12.1501 50.1491 12.7854C50.3184 13.4412 50.4666 14.015 50.6148 14.5479C50.6148 14.5479 53.0069 22.93 53.5996 24.9589C53.7054 25.2663 53.8324 25.4098 54.1711 25.4098H56.9231C57.3676 25.3893 57.4735 25.3483 57.6005 24.9794C58.2356 22.9095 60.924 14.097 60.924 14.097C61.1145 13.4617 61.2627 12.9289 61.3686 12.478C61.4744 12.0271 61.6014 11.5148 61.7284 10.9204C61.7284 11.4738 61.7496 12.0271 61.7708 12.5805C61.7919 13.1338 61.8343 13.7281 61.8766 14.3839C61.8766 14.3839 62.554 23.1349 62.6599 25.0614C62.681 25.4098 62.8716 25.4303 63.1256 25.4303H66.5761C66.7878 25.4303 66.9995 25.3278 66.9571 24.9794C66.6608 22.2332 65.3695 7.90779 65.0943 5.16157ZM81.9447 10.1621H78.4942C78.1131 10.1621 78.0496 10.2236 77.9438 10.5515C77.4146 12.1296 75.6575 17.4376 75.6575 17.4376C75.5305 17.786 75.4035 18.1754 75.2977 18.5648C75.1918 18.9541 75.086 19.282 75.0225 19.5485C74.9801 19.7329 74.9378 19.9584 74.8743 20.2248C74.8108 20.5117 74.7473 20.7576 74.7049 21.0036C74.6626 21.2495 74.6203 21.4749 74.5779 21.6594C74.5568 21.8438 74.5356 21.9463 74.5356 21.9668L73.6888 18.8107C73.6888 18.8107 71.5931 12.1296 71.0427 10.3466C70.9369 10.0187 70.704 9.93671 70.4077 9.9777C69.5821 10.0597 67.9309 10.2441 67.1053 10.3466C66.7031 10.3876 66.6608 10.5925 66.7455 10.8385C67.6134 13.3182 71.8895 25.3893 71.8895 25.3893H72.9479C72.8421 25.6147 72.7574 25.7992 72.6939 25.9631C72.6304 26.1271 72.5669 26.2706 72.5034 26.3935C72.4399 26.5165 72.3764 26.6394 72.2917 26.7624C72.2282 26.8854 72.1223 27.0288 72.0165 27.1723C71.6566 27.7051 71.2544 28.115 70.831 28.4224C70.5135 28.6479 70.1113 28.8323 69.6456 28.9963C69.3281 29.0987 69.0317 29.2012 68.7353 29.2832C68.3966 29.3857 68.3543 29.6521 68.4813 29.898C68.7565 30.4104 69.2222 31.2301 69.4762 31.7015C69.6244 31.9679 69.8996 32.0294 70.1536 31.9884C70.704 31.8859 71.2333 31.7425 71.7625 31.5785C72.4187 31.3531 73.0114 31.0457 73.5618 30.6768C73.8582 30.4719 74.1334 30.2464 74.3874 29.9595C74.6414 29.6726 74.8743 29.3447 75.1283 28.9553C75.3612 28.5659 75.6152 28.0945 75.8692 27.5617C76.1233 27.0083 76.3773 26.373 76.6525 25.6352C76.6525 25.6352 81.352 13.1953 82.3046 10.6335C82.4739 10.1826 82.2199 10.1621 81.9447 10.1621ZM98.033 4.7107H94.4555C94.0321 4.7107 93.9686 4.83367 93.9686 5.18207C93.9686 6.90358 93.9686 12.7444 93.9686 12.7444H87.7026C87.7026 12.7444 87.7026 6.90358 87.7026 5.18207C87.7026 4.75169 87.4909 4.69021 87.0676 4.7107H83.8711C83.4053 4.7107 83.3418 4.85416 83.3418 5.20256V24.9179C83.3418 25.2868 83.5112 25.3893 83.7441 25.3893H87.2157C87.4698 25.3893 87.6815 25.3278 87.6815 24.9384C87.6815 23.0735 87.6815 16.1669 87.6815 16.1669H93.9474C93.9474 16.1669 93.9474 23.053 93.9474 24.9179C93.9474 25.2458 94.1591 25.3893 94.4343 25.3893H97.9695C98.2659 25.3893 98.3929 25.2253 98.3929 24.9384V5.18207C98.4352 4.79268 98.3082 4.7107 98.033 4.7107ZM123.542 9.85474C123.351 9.81375 123.097 9.79325 122.779 9.79325C121.975 9.79325 121.276 10.0187 120.641 10.4491C120.006 10.8794 119.477 11.3918 119.011 11.9656C118.948 11.1459 118.736 10.4286 118.355 9.79325L114.587 10.736C114.756 11.1664 114.905 11.7607 115.01 12.519C115.116 13.2773 115.18 14.1585 115.18 15.2037C115.18 15.2037 115.18 23.0735 115.18 24.9384C115.18 25.1434 115.286 25.3893 115.624 25.3893H118.906C119.181 25.3893 119.371 25.3073 119.371 24.9384C119.371 22.9095 119.371 14.6094 119.371 14.6094C120.155 13.7486 121.001 13.3387 121.933 13.3387C122.144 13.3387 122.356 13.3387 122.568 13.3797C122.949 13.4412 123.203 13.5027 123.33 13.0518C123.542 12.4165 123.88 11.3713 124.092 10.7155C124.325 10.1826 124.028 9.9777 123.542 9.85474ZM127.246 3.50155C126.505 3.50155 125.891 3.74748 125.383 4.21884C124.875 4.69021 124.621 5.28454 124.621 5.98134C124.621 6.67814 124.875 7.25198 125.383 7.74384C125.891 8.2152 126.484 8.46113 127.204 8.46113C127.945 8.46113 128.559 8.2152 129.045 7.74384C129.554 7.27247 129.808 6.67814 129.808 5.98134C129.808 5.28454 129.554 4.7107 129.067 4.21884C128.559 3.72698 127.966 3.50155 127.246 3.50155ZM128.897 9.85474C128.093 9.9777 126.315 10.2441 125.489 10.3671C125.108 10.4286 125.087 10.5515 125.087 10.777V24.9589C125.087 25.2868 125.299 25.3688 125.531 25.3688H128.918C129.215 25.3688 129.278 25.2868 129.278 24.9794V10.1826C129.278 9.83424 129.151 9.81375 128.897 9.85474ZM140.138 23.012C140.074 22.7456 139.799 22.7456 139.63 22.7865C139.439 22.8275 139.291 22.8685 139.164 22.889C138.952 22.93 138.741 22.971 138.55 22.971C137.809 22.971 137.322 22.807 137.09 22.4791C136.857 22.1512 136.73 21.4954 136.73 20.5322V12.8879H139.418C139.418 12.8879 139.969 11.4943 140.265 10.695C140.413 10.2646 140.159 10.1621 139.926 10.1621C138.868 10.1621 136.73 10.1621 136.73 10.1621C136.73 9.38337 136.751 8.60459 136.793 7.80532C136.814 7.31346 136.857 6.8421 136.899 6.39122C136.984 5.65343 136.433 5.71492 136.095 5.7764C134.846 6.06332 132.708 6.57567 132.708 6.57567C132.623 7.14951 132.581 7.70285 132.559 8.2357C132.538 8.76855 132.538 9.42436 132.538 10.1621H130.929V12.9084H132.538V21.188C132.538 21.5364 132.538 21.8438 132.559 22.0693C132.559 22.2947 132.581 22.4996 132.581 22.6431C132.581 22.807 132.623 22.9505 132.665 23.094C132.708 23.2374 132.75 23.3809 132.814 23.5448C133.068 24.2211 133.576 24.754 134.359 25.1639C135.142 25.5738 136.074 25.7787 137.132 25.7787C138.148 25.7787 139.185 25.5942 140.244 25.2049C140.392 25.1434 140.519 25.0409 140.477 24.795C140.434 24.3236 140.244 23.4833 140.138 23.012ZM154.448 22.9915C154.258 22.7661 154.088 22.5201 154.004 22.2537C153.898 21.9873 153.834 21.7209 153.813 21.4134C153.792 21.106 153.792 20.7371 153.792 20.3272L153.877 15.2037V14.179C153.877 13.8921 153.855 13.6666 153.834 13.4617C153.813 13.2568 153.771 13.0928 153.75 12.9494C153.728 12.8059 153.665 12.6419 153.601 12.4985C153.284 11.6377 152.691 10.9819 151.802 10.531C150.913 10.0802 149.791 9.85474 148.436 9.85474C147.695 9.85474 146.997 9.91622 146.298 10.0597C145.6 10.2031 144.859 10.4286 144.054 10.736C143.483 10.9614 143.017 11.1459 142.636 11.3303C142.424 11.4328 142.191 11.5558 141.958 11.6787C141.577 11.9042 141.62 12.1911 141.726 12.437C142.043 12.9494 142.572 13.7896 142.911 14.343C143.165 14.7118 143.44 14.6709 143.758 14.5274C144.435 14.138 145.091 13.8101 145.705 13.5847C146.489 13.2773 147.208 13.1338 147.865 13.1338C148.648 13.1338 149.135 13.2978 149.389 13.6257C149.622 13.9536 149.749 14.5479 149.749 15.3882V16.003C149.579 15.9825 149.431 15.9825 149.283 15.9825H148.796C146.235 15.9825 144.287 16.4129 143.017 17.2531C141.726 18.0934 141.091 19.4255 141.091 21.229C141.091 22.7661 141.556 23.9342 142.509 24.754C143.44 25.5738 144.816 25.9836 146.616 25.9836C147.949 25.9836 149.029 25.6967 149.854 25.1434C150.024 25.0409 150.193 24.9179 150.341 24.795C150.49 24.6515 150.659 24.5081 150.828 24.3441C151.04 24.7335 151.336 25.1024 151.76 25.4098C151.992 25.5942 152.247 25.7582 152.522 25.9017C152.924 26.1271 153.22 26.0451 153.538 25.7172C153.961 25.2663 154.617 24.5695 154.977 24.1187C155.125 23.9342 155.21 23.6678 154.935 23.4629C154.723 23.2784 154.575 23.1349 154.448 22.9915ZM149.6 22.0078C149.283 22.3357 148.944 22.6021 148.563 22.7865C148.182 22.971 147.801 23.053 147.399 23.053C146.848 23.053 146.404 22.8685 146.065 22.4996C145.727 22.1307 145.557 21.6594 145.557 21.065C145.557 20.1428 145.854 19.528 146.425 19.2206C146.997 18.9132 148.013 18.7492 149.473 18.7492H149.664L149.6 22.0078ZM169.457 12.9494C170.05 12.9494 170.558 12.8674 171.023 12.6829C171.341 12.56 171.68 12.3755 172.018 12.1296C172.293 11.9451 172.315 11.6377 172.124 11.3918C171.828 10.9819 171.404 10.3466 171.066 9.87523C170.833 9.48584 170.621 9.38337 170.198 9.64979C169.838 9.89572 169.478 10.1007 169.076 10.2646C168.504 10.4901 167.911 10.613 167.34 10.613C167.065 10.613 166.79 10.5925 166.472 10.531C166.176 10.4696 165.795 10.3876 165.35 10.2851C164.757 10.1417 164.249 10.0392 163.805 9.9777C163.36 9.91622 162.916 9.89572 162.45 9.89572C161.434 9.89572 160.502 10.0187 159.656 10.2646C158.809 10.5105 158.11 10.8589 157.518 11.3098C156.925 11.7607 156.48 12.2935 156.163 12.9289C155.845 13.5642 155.676 14.261 155.676 15.0398C155.676 17.2941 156.819 18.7082 159.126 19.2616C158.449 19.4255 157.92 19.5895 157.539 19.7944C157.158 19.9993 156.861 20.2043 156.671 20.4092C156.48 20.6347 156.332 20.8601 156.269 21.0855C156.205 21.311 156.184 21.5569 156.184 21.8028C156.184 22.3152 156.29 22.7456 156.523 23.0735C156.734 23.4014 157.031 23.6473 157.412 23.7908C158.153 24.0982 159.423 24.2416 161.264 24.2621L163.043 24.2826C163.868 24.3031 164.588 24.4261 165.138 24.6925C165.71 24.9384 165.985 25.4098 165.985 26.1066C165.985 26.414 165.9 26.7214 165.71 26.9878C165.519 27.2543 165.265 27.4797 164.948 27.6642C164.609 27.8691 164.228 27.9921 163.784 28.074C163.339 28.1355 162.852 28.1765 162.302 28.1765C161.328 28.1765 160.566 28.0126 160.058 27.7051C159.55 27.3977 159.296 26.9264 159.296 26.3115C159.296 26.0861 159.296 25.9222 159.317 25.7992C159.338 25.6762 159.38 25.2868 158.999 25.3278H155.57C155.485 25.4918 155.401 25.6762 155.316 25.9017C155.231 26.1271 155.189 26.455 155.189 26.8649C155.189 27.8896 155.634 28.7913 156.501 29.5701C157.242 30.2054 158.153 30.6358 159.232 30.8612C160.312 31.0867 161.434 31.2096 162.577 31.2096C163.826 31.2096 165.033 31.0662 166.154 30.7588C167.276 30.4514 168.208 29.9595 168.906 29.2422C169.753 28.361 170.198 27.3158 170.198 26.0861C170.198 24.7335 169.732 23.6473 168.822 22.848C168.25 22.3562 167.615 22.0078 166.874 21.8028C166.133 21.5979 165.181 21.4954 163.953 21.4749L161.688 21.4544C161.222 21.4544 160.989 21.3315 160.989 21.106C160.989 20.8806 161.137 20.6756 161.413 20.4912C161.688 20.3068 162.111 20.0813 162.662 19.8559C162.831 19.8764 162.937 19.8764 163 19.8764H163.276C164.122 19.8764 164.927 19.7534 165.646 19.528C166.366 19.3025 167.001 18.9951 167.53 18.5852C168.06 18.1959 168.483 17.704 168.758 17.1507C169.055 16.5973 169.203 15.9825 169.203 15.3267C169.203 14.8143 169.118 14.3634 168.97 13.9536C168.822 13.5642 168.568 13.1748 168.271 12.8264C168.398 12.8469 168.568 12.8674 168.758 12.8879C169.033 12.9494 169.245 12.9494 169.457 12.9494ZM162.386 17.2326C161.646 17.2326 161.053 17.0687 160.608 16.7203C160.143 16.3924 159.91 15.8185 159.91 15.0602C159.91 14.343 160.121 13.7896 160.566 13.4002C161.01 13.0108 161.624 12.8059 162.408 12.8059C163.212 12.8059 163.826 13.0108 164.27 13.4002C164.715 13.7896 164.948 14.343 164.948 15.0602C164.969 16.5153 164.101 17.2326 162.386 17.2326ZM184.36 19.0156C185.101 19.0156 184.995 18.0934 184.995 18.0934C184.995 16.4948 184.825 15.1627 184.487 14.097C184.148 13.0313 183.598 12.1501 182.878 11.4328C182.349 10.9204 181.692 10.531 180.867 10.2441C180.041 9.95721 179.173 9.83424 178.242 9.83424C177.183 9.83424 176.231 9.99819 175.426 10.3466C174.601 10.6745 173.86 11.2073 173.204 11.8837C172.484 12.6419 171.976 13.4822 171.658 14.4454C171.341 15.3882 171.193 16.5563 171.193 17.9294C171.193 19.1181 171.362 20.2043 171.722 21.1675C172.082 22.1307 172.59 22.971 173.246 23.6473C173.902 24.3236 174.707 24.8565 175.638 25.2458C176.57 25.6147 177.628 25.8197 178.771 25.8197C180.846 25.8197 182.73 25.2049 184.466 23.9752C184.72 23.8113 184.762 23.5653 184.571 23.3399C184.296 22.93 183.809 22.2332 183.513 21.7823C183.259 21.3724 182.984 21.4749 182.772 21.6389C181.608 22.4381 180.38 22.848 179.11 22.848C178.03 22.848 177.183 22.5406 176.612 21.9053C176.019 21.27 175.744 20.3682 175.744 19.1591V19.0361C175.723 19.0156 182.264 19.0156 184.36 19.0156ZM175.786 16.044C175.786 14.9783 175.998 14.1585 176.443 13.5847C176.887 13.0108 177.501 12.7444 178.284 12.7444C179.11 12.7444 179.724 13.0518 180.126 13.6462C180.316 13.9331 180.443 14.2405 180.528 14.5684C180.592 14.8963 180.634 15.3677 180.634 15.9415V16.1259H175.765V16.044H175.786ZM113.105 14.097C112.767 13.0313 112.216 12.1501 111.496 11.4328C110.967 10.9204 110.311 10.531 109.485 10.2441C108.66 9.95721 107.792 9.83424 106.86 9.83424C105.802 9.83424 104.849 9.99819 104.045 10.3466C103.219 10.6745 102.479 11.2073 101.822 11.8837C101.103 12.6419 100.594 13.4822 100.277 14.4454C99.9594 15.3882 99.8112 16.5563 99.8112 17.9294C99.8112 19.1181 99.9806 20.2043 100.34 21.1675C100.7 22.1307 101.208 22.971 101.865 23.6473C102.521 24.3236 103.325 24.8565 104.257 25.2458C105.188 25.6147 106.247 25.8197 107.39 25.8197C109.464 25.8197 111.348 25.2049 113.084 23.9752C113.338 23.8113 113.38 23.5653 113.19 23.3399C112.915 22.93 112.428 22.2332 112.132 21.7823C111.877 21.3724 111.602 21.4749 111.391 21.6389C110.226 22.4381 108.999 22.848 107.728 22.848C106.649 22.848 105.802 22.5406 105.23 21.9053C104.638 21.27 104.363 20.3682 104.363 19.1591V19.0361C104.363 19.0361 110.904 19.0361 112.999 19.0361C113.74 19.0361 113.635 18.1139 113.635 18.1139C113.635 16.4948 113.465 15.1627 113.105 14.097ZM109.274 16.1055H104.405V16.044C104.405 14.9783 104.617 14.1585 105.061 13.5847C105.506 13.0108 106.12 12.7444 106.903 12.7444C107.728 12.7444 108.342 13.0518 108.744 13.6462C108.935 13.9331 109.062 14.2405 109.147 14.5684C109.21 14.8963 109.253 15.3677 109.253 15.9415V16.1055H109.274ZM22.4602 0.0790246C30.2715 0.529896 36.4528 7.21099 36.4528 14.8758C36.4528 22.5406 30.2715 29.2422 22.4602 29.6726C33.7644 30.6358 40.7501 22.9915 40.7501 14.8758C40.7501 6.78061 33.7855 -0.863706 22.4602 0.0790246ZM4.29728 14.8963C4.29728 7.23148 10.4786 0.529896 18.2899 0.0995187C7.11274 -0.904695 0 6.78061 0 14.8963C0 23.012 7.28209 30.8407 18.2899 29.6931C10.4786 29.2422 4.29728 22.5611 4.29728 14.8963ZM35.2462 14.8963C35.1615 6.94457 28.578 0.488908 20.3645 0.488908C12.1509 0.488908 5.50391 6.94457 5.50391 14.8963C5.50391 21.8438 10.5844 27.6437 17.3161 28.9553C19.56 29.3857 19.8776 23.8522 19.2637 20.1633C19.2425 20.1633 18.5863 20.1223 18.3534 20.1223C17.8877 20.1018 17.4643 20.6142 17.168 20.7166C16.6811 20.8806 16.5964 20.4297 16.2577 20.4297C15.9613 20.4297 15.538 20.8806 14.416 20.6756C13.2729 20.4707 12.913 19.4665 12.913 19.4665L12.5743 19.3025C11.41 19.0156 11.3465 17.8065 11.3465 17.7245C11.283 17.1302 12.3626 16.6793 12.0663 16.4948C10.7538 15.6956 11.1772 15.0603 11.1983 15.0193C11.3677 14.5889 12.0028 13.6666 11.7699 13.5232C11.1348 13.1338 12.1933 10.818 13.1035 10.1826C13.2517 9.44485 14.0561 8.25619 14.8394 8.01026C14.797 7.1905 16.0037 6.71913 16.0037 6.71913C16.8504 6.45271 16.2577 5.79689 17.8665 5.89936C18.2476 5.91986 18.2264 5.50997 19.1578 5.48948C19.433 5.48948 19.7294 5.28454 20.555 5.28454C21.9945 5.22306 21.931 6.16579 22.4178 6.00183C23.0317 5.79689 25.0639 6.76012 25.2756 8.76854C26.1859 8.70706 28.5991 11.2688 28.5356 13.1543C30.1233 14.8758 27.9641 16.4948 27.8794 16.8227C27.9429 17.0072 28.2604 17.786 28.1334 18.3803C27.9852 19.0976 27.0538 19.8559 27.0115 19.8969C26.3552 20.3477 25.8895 20.8601 25.1063 20.7166C24.3019 20.5732 24.45 19.8559 24.2172 19.6919C23.7091 20.1428 22.9259 20.5117 21.9521 20.4297C21.8251 20.4092 21.4017 20.3682 21.3594 20.3682C20.8937 23.0735 20.9572 29.1192 22.9259 29.1192C28.8743 28.197 35.3308 22.6226 35.2462 14.8963Z" fill="#595959"/>
</svg>
