<svg preserveAspectRatio="none" width="100%" height="100%" overflow="visible" style="display: block;" viewBox="0 0 184 32" fill="none" xmlns="http://www.w3.org/2000/svg">
<path id="Logo" fill-rule="evenodd" clip-rule="evenodd" d="M64.7424 5.16157C64.7003 4.79268 64.5529 4.7107 64.174 4.7107H59.6051C59.3314 4.7107 59.1209 4.77219 59.0156 5.18207C58.4471 7.1905 56.2154 14.9783 56.2154 14.9783C55.8785 16.1874 55.6258 17.3146 55.4364 18.3393C55.3942 18.0729 55.3521 17.827 55.289 17.6015C55.2469 17.3556 55.1837 17.1302 55.1416 16.8637C55.0995 16.6178 55.0363 16.3514 54.9521 16.0645C54.8889 15.7775 54.7837 15.4496 54.6784 15.0603C54.6784 15.0603 52.5098 7.14951 51.9624 5.16157C51.815 4.7107 51.5623 4.7107 51.2676 4.7107H46.7198C46.3619 4.7107 46.2566 4.89515 46.2356 5.18207C45.9619 7.98977 44.5723 22.1512 44.2986 24.9179C44.2775 25.2663 44.467 25.3688 44.8249 25.3893H48.0041C48.341 25.3893 48.5726 25.3278 48.6147 24.9384C48.7621 22.9095 49.3306 14.5889 49.3306 14.5889C49.3727 13.9536 49.3937 13.3387 49.4148 12.7239C49.4569 12.1501 49.4779 11.5762 49.4779 11.0024C49.5832 11.5557 49.7095 12.1501 49.878 12.7854C50.0464 13.4412 50.1938 14.015 50.3412 14.5479C50.3412 14.5479 52.7203 22.93 53.3099 24.9589C53.4151 25.2663 53.5415 25.4098 53.8783 25.4098H56.6154C57.0575 25.3893 57.1628 25.3483 57.2891 24.9794C57.9208 22.9095 60.5947 14.097 60.5947 14.097C60.7842 13.4617 60.9316 12.9289 61.0368 12.478C61.1421 12.0271 61.2684 11.5148 61.3948 10.9204C61.3948 11.4738 61.4158 12.0271 61.4369 12.5805C61.4579 13.1338 61.5 13.7281 61.5421 14.3839C61.5421 14.3839 62.2159 23.1349 62.3212 25.0614C62.3422 25.4098 62.5317 25.4303 62.7844 25.4303H66.2162C66.4268 25.4303 66.6373 25.3278 66.5952 24.9794C66.3005 22.2332 65.0161 7.90779 64.7424 5.16157ZM81.5018 10.1621H78.0699C77.6909 10.1621 77.6277 10.2236 77.5225 10.5515C76.9961 12.1296 75.2486 17.4376 75.2486 17.4376C75.1223 17.786 74.9959 18.1754 74.8907 18.5648C74.7854 18.9541 74.6801 19.282 74.617 19.5485C74.5748 19.7329 74.5327 19.9584 74.4696 20.2248C74.4064 20.5117 74.3432 20.7576 74.3011 21.0036C74.259 21.2495 74.2169 21.4749 74.1748 21.6594C74.1538 21.8438 74.1327 21.9463 74.1327 21.9668L73.2905 18.8107C73.2905 18.8107 71.2061 12.1296 70.6587 10.3466C70.5534 10.0187 70.3218 9.93671 70.0271 9.9777C69.206 10.0597 67.5637 10.2441 66.7426 10.3466C66.3426 10.3876 66.3004 10.5925 66.3847 10.8385C67.2479 13.3182 71.5009 25.3893 71.5009 25.3893H72.5536C72.4483 25.6147 72.3641 25.7992 72.301 25.9631C72.2378 26.1271 72.1746 26.2706 72.1115 26.3935C72.0483 26.5165 71.9851 26.6394 71.9009 26.7624C71.8378 26.8854 71.7325 27.0288 71.6272 27.1723C71.2693 27.7051 70.8693 28.115 70.4482 28.4224C70.1324 28.6479 69.7323 28.8323 69.2691 28.9963C68.9533 29.0987 68.6585 29.2012 68.3638 29.2832C68.0269 29.3857 67.9848 29.6521 68.1111 29.898C68.3848 30.4104 68.848 31.2301 69.1007 31.7015C69.2481 31.9679 69.5218 32.0294 69.7744 31.9884C70.3218 31.8859 70.8482 31.7425 71.3746 31.5785C72.0273 31.3531 72.6168 31.0457 73.1642 30.6768C73.459 30.4719 73.7327 30.2464 73.9853 29.9595C74.238 29.6726 74.4696 29.3447 74.7222 28.9553C74.9538 28.5659 75.2065 28.0945 75.4591 27.5617C75.7118 27.0083 75.9644 26.373 76.2381 25.6352C76.2381 25.6352 80.9122 13.1953 81.8597 10.6335C82.0281 10.1826 81.7755 10.1621 81.5018 10.1621ZM97.5031 4.7107H93.9449C93.5238 4.7107 93.4607 4.83367 93.4607 5.18207C93.4607 6.90358 93.4607 12.7444 93.4607 12.7444H87.2286C87.2286 12.7444 87.2286 6.90358 87.2286 5.18207C87.2286 4.75169 87.018 4.69021 86.5969 4.7107H83.4177C82.9545 4.7107 82.8913 4.85416 82.8913 5.20256V24.9179C82.8913 25.2868 83.0598 25.3893 83.2914 25.3893H86.7443C86.997 25.3893 87.2075 25.3278 87.2075 24.9384C87.2075 23.0735 87.2075 16.1669 87.2075 16.1669H93.4396C93.4396 16.1669 93.4396 23.053 93.4396 24.9179C93.4396 25.2458 93.6502 25.3893 93.9239 25.3893H97.44C97.7347 25.3893 97.8611 25.2253 97.8611 24.9384V5.18207C97.9032 4.79268 97.7768 4.7107 97.5031 4.7107ZM122.874 9.85474C122.684 9.81375 122.432 9.79325 122.116 9.79325C121.316 9.79325 120.621 10.0187 119.989 10.4491C119.358 10.8794 118.831 11.3918 118.368 11.9656C118.305 11.1459 118.094 10.4286 117.715 9.79325L113.968 10.736C114.136 11.1664 114.284 11.7607 114.389 12.519C114.494 13.2773 114.557 14.1585 114.557 15.2037C114.557 15.2037 114.557 23.0735 114.557 24.9384C114.557 25.1434 114.663 25.3893 114.999 25.3893H118.263C118.537 25.3893 118.726 25.3073 118.726 24.9384C118.726 22.9095 118.726 14.6094 118.726 14.6094C119.505 13.7486 120.347 13.3387 121.274 13.3387C121.484 13.3387 121.695 13.3387 121.905 13.3797C122.284 13.4412 122.537 13.5027 122.663 13.0518C122.874 12.4165 123.211 11.3713 123.421 10.7155C123.653 10.1826 123.358 9.9777 122.874 9.85474ZM126.558 3.50155C125.821 3.50155 125.211 3.74748 124.705 4.21884C124.2 4.69021 123.948 5.28454 123.948 5.98134C123.948 6.67814 124.2 7.25198 124.705 7.74384C125.211 8.2152 125.8 8.46113 126.516 8.46113C127.253 8.46113 127.864 8.2152 128.348 7.74384C128.853 7.27247 129.106 6.67814 129.106 5.98134C129.106 5.28454 128.853 4.7107 128.369 4.21884C127.864 3.72698 127.274 3.50155 126.558 3.50155ZM128.201 9.85474C127.4 9.9777 125.632 10.2441 124.811 10.3671C124.432 10.4286 124.411 10.5515 124.411 10.777V24.9589C124.411 25.2868 124.621 25.3688 124.853 25.3688H128.222C128.516 25.3688 128.58 25.2868 128.58 24.9794V10.1826C128.58 9.83424 128.453 9.81375 128.201 9.85474ZM139.38 23.012C139.317 22.7456 139.044 22.7456 138.875 22.7865C138.686 22.8275 138.538 22.8685 138.412 22.889C138.201 22.93 137.991 22.971 137.801 22.971C137.064 22.971 136.58 22.807 136.349 22.4791C136.117 22.1512 135.991 21.4954 135.991 20.5322V12.8879H138.665C138.665 12.8879 139.212 11.4943 139.507 10.695C139.654 10.2646 139.401 10.1621 139.17 10.1621C138.117 10.1621 135.991 10.1621 135.991 10.1621C135.991 9.38337 136.012 8.60459 136.054 7.80532C136.075 7.31346 136.117 6.8421 136.159 6.39122C136.243 5.65343 135.696 5.71492 135.359 5.7764C134.117 6.06332 131.99 6.57567 131.99 6.57567C131.906 7.14951 131.864 7.70285 131.843 8.2357C131.822 8.76855 131.822 9.42436 131.822 10.1621H130.222V12.9084H131.822V21.188C131.822 21.5364 131.822 21.8438 131.843 22.0693C131.843 22.2947 131.864 22.4996 131.864 22.6431C131.864 22.807 131.906 22.9505 131.948 23.094C131.99 23.2374 132.032 23.3809 132.096 23.5448C132.348 24.2211 132.854 24.754 133.633 25.1639C134.412 25.5738 135.338 25.7787 136.391 25.7787C137.401 25.7787 138.433 25.5942 139.486 25.2049C139.633 25.1434 139.759 25.0409 139.717 24.795C139.675 24.3236 139.486 23.4833 139.38 23.012ZM153.613 22.9915C153.424 22.7661 153.255 22.5201 153.171 22.2537C153.066 21.9873 153.003 21.7209 152.982 21.4134C152.961 21.106 152.961 20.7371 152.961 20.3272L153.045 15.2037V14.179C153.045 13.8921 153.024 13.6666 153.003 13.4617C152.982 13.2568 152.939 13.0928 152.918 12.9494C152.897 12.8059 152.834 12.6419 152.771 12.4985C152.455 11.6377 151.866 10.9819 150.981 10.531C150.097 10.0802 148.981 9.85474 147.634 9.85474C146.897 9.85474 146.202 9.91622 145.507 10.0597C144.812 10.2031 144.076 10.4286 143.276 10.736C142.707 10.9614 142.244 11.1459 141.865 11.3303C141.654 11.4328 141.423 11.5558 141.191 11.6787C140.812 11.9042 140.854 12.1911 140.96 12.437C141.275 12.9494 141.802 13.7896 142.139 14.343C142.391 14.7118 142.665 14.6709 142.981 14.5274C143.654 14.138 144.307 13.8101 144.918 13.5847C145.697 13.2773 146.413 13.1338 147.065 13.1338C147.844 13.1338 148.329 13.2978 148.581 13.6257C148.813 13.9536 148.939 14.5479 148.939 15.3882V16.003C148.771 15.9825 148.623 15.9825 148.476 15.9825H147.992C145.444 15.9825 143.507 16.4129 142.244 17.2531C140.96 18.0934 140.328 19.4255 140.328 21.229C140.328 22.7661 140.791 23.9342 141.739 24.754C142.665 25.5738 144.033 25.9836 145.823 25.9836C147.15 25.9836 148.223 25.6967 149.044 25.1434C149.213 25.0409 149.381 24.9179 149.529 24.795C149.676 24.6515 149.844 24.5081 150.013 24.3441C150.223 24.7335 150.518 25.1024 150.939 25.4098C151.171 25.5942 151.424 25.7582 151.697 25.9017C152.097 26.1271 152.392 26.0451 152.708 25.7172C153.129 25.2663 153.782 24.5695 154.14 24.1187C154.287 23.9342 154.371 23.6678 154.097 23.4629C153.887 23.2784 153.74 23.1349 153.613 22.9915ZM148.792 22.0078C148.476 22.3357 148.139 22.6021 147.76 22.7865C147.381 22.971 147.002 23.053 146.602 23.053C146.055 23.053 145.613 22.8685 145.276 22.4996C144.939 22.1307 144.77 21.6594 144.77 21.065C144.77 20.1428 145.065 19.528 145.634 19.2206C146.202 18.9132 147.213 18.7492 148.665 18.7492H148.855L148.792 22.0078ZM168.541 12.9494C169.13 12.9494 169.636 12.8674 170.099 12.6829C170.415 12.56 170.752 12.3755 171.088 12.1296C171.362 11.9451 171.383 11.6377 171.194 11.3918C170.899 10.9819 170.478 10.3466 170.141 9.87523C169.909 9.48584 169.699 9.38337 169.278 9.64979C168.92 9.89572 168.562 10.1007 168.162 10.2646C167.593 10.4901 167.004 10.613 166.435 10.613C166.162 10.613 165.888 10.5925 165.572 10.531C165.277 10.4696 164.898 10.3876 164.456 10.2851C163.867 10.1417 163.361 10.0392 162.919 9.9777C162.477 9.91622 162.035 9.89572 161.572 9.89572C160.561 9.89572 159.635 10.0187 158.793 10.2646C157.95 10.5105 157.256 10.8589 156.666 11.3098C156.077 11.7607 155.634 12.2935 155.319 12.9289C155.003 13.5642 154.834 14.261 154.834 15.0398C154.834 17.2941 155.971 18.7082 158.266 19.2616C157.593 19.4255 157.066 19.5895 156.687 19.7944C156.308 19.9993 156.013 20.2043 155.824 20.4092C155.634 20.6347 155.487 20.8601 155.424 21.0855C155.361 21.311 155.34 21.5569 155.34 21.8028C155.34 22.3152 155.445 22.7456 155.677 23.0735C155.887 23.4014 156.182 23.6473 156.561 23.7908C157.298 24.0982 158.561 24.2416 160.393 24.2621L162.161 24.2826C162.982 24.3031 163.698 24.4261 164.246 24.6925C164.814 24.9384 165.088 25.4098 165.088 26.1066C165.088 26.414 165.004 26.7214 164.814 26.9878C164.625 27.2543 164.372 27.4797 164.056 27.6642C163.719 27.8691 163.34 27.9921 162.898 28.074C162.456 28.1355 161.972 28.1765 161.424 28.1765C160.456 28.1765 159.698 28.0126 159.193 27.7051C158.687 27.3977 158.435 26.9264 158.435 26.3115C158.435 26.0861 158.435 25.9222 158.456 25.7992C158.477 25.6762 158.519 25.2868 158.14 25.3278H154.729C154.645 25.4918 154.561 25.6762 154.476 25.9017C154.392 26.1271 154.35 26.455 154.35 26.8649C154.35 27.8896 154.792 28.7913 155.656 29.5701C156.392 30.2054 157.298 30.6358 158.372 30.8612C159.445 31.0867 160.561 31.2096 161.698 31.2096C162.94 31.2096 164.14 31.0662 165.256 30.7588C166.372 30.4514 167.299 29.9595 167.993 29.2422C168.836 28.361 169.278 27.3158 169.278 26.0861C169.278 24.7335 168.815 23.6473 167.909 22.848C167.341 22.3562 166.709 22.0078 165.972 21.8028C165.235 21.5979 164.288 21.4954 163.067 21.4749L160.814 21.4544C160.351 21.4544 160.119 21.3315 160.119 21.106C160.119 20.8806 160.266 20.6756 160.54 20.4912C160.814 20.3068 161.235 20.0813 161.782 19.8559C161.951 19.8764 162.056 19.8764 162.119 19.8764H162.393C163.235 19.8764 164.035 19.7534 164.751 19.528C165.467 19.3025 166.099 18.9951 166.625 18.5852C167.151 18.1959 167.572 17.704 167.846 17.1507C168.141 16.5973 168.288 15.9825 168.288 15.3267C168.288 14.8143 168.204 14.3634 168.057 13.9536C167.909 13.5642 167.657 13.1748 167.362 12.8264C167.488 12.8469 167.657 12.8674 167.846 12.8879C168.12 12.9494 168.33 12.9494 168.541 12.9494ZM161.509 17.2326C160.772 17.2326 160.182 17.0687 159.74 16.7203C159.277 16.3924 159.045 15.8185 159.045 15.0602C159.045 14.343 159.256 13.7896 159.698 13.4002C160.14 13.0108 160.751 12.8059 161.53 12.8059C162.33 12.8059 162.94 13.0108 163.383 13.4002C163.825 13.7896 164.056 14.343 164.056 15.0602C164.077 16.5153 163.214 17.2326 161.509 17.2326ZM183.363 19.0156C184.1 19.0156 183.995 18.0934 183.995 18.0934C183.995 16.4948 183.826 15.1627 183.489 14.097C183.153 13.0313 182.605 12.1501 181.889 11.4328C181.363 10.9204 180.71 10.531 179.889 10.2441C179.068 9.95721 178.205 9.83424 177.278 9.83424C176.226 9.83424 175.278 9.99819 174.478 10.3466C173.657 10.6745 172.92 11.2073 172.267 11.8837C171.552 12.6419 171.046 13.4822 170.731 14.4454C170.415 15.3882 170.267 16.5563 170.267 17.9294C170.267 19.1181 170.436 20.2043 170.794 21.1675C171.152 22.1307 171.657 22.971 172.31 23.6473C172.962 24.3236 173.762 24.8565 174.689 25.2458C175.615 25.6147 176.668 25.8197 177.805 25.8197C179.868 25.8197 181.742 25.2049 183.468 23.9752C183.721 23.8113 183.763 23.5653 183.574 23.3399C183.3 22.93 182.816 22.2332 182.521 21.7823C182.268 21.3724 181.995 21.4749 181.784 21.6389C180.626 22.4381 179.405 22.848 178.142 22.848C177.068 22.848 176.226 22.5406 175.657 21.9053C175.068 21.27 174.794 20.3682 174.794 19.1591V19.0361C174.773 19.0156 181.279 19.0156 183.363 19.0156ZM174.836 16.044C174.836 14.9783 175.047 14.1585 175.489 13.5847C175.931 13.0108 176.542 12.7444 177.321 12.7444C178.142 12.7444 178.752 13.0518 179.152 13.6462C179.342 13.9331 179.468 14.2405 179.552 14.5684C179.615 14.8963 179.658 15.3677 179.658 15.9415V16.1259H174.815V16.044H174.836ZM112.494 14.097C112.157 13.0313 111.61 12.1501 110.894 11.4328C110.367 10.9204 109.715 10.531 108.894 10.2441C108.072 9.95721 107.209 9.83424 106.283 9.83424C105.23 9.83424 104.283 9.99819 103.483 10.3466C102.661 10.6745 101.925 11.2073 101.272 11.8837C100.556 12.6419 100.051 13.4822 99.7349 14.4454C99.4191 15.3882 99.2717 16.5563 99.2717 17.9294C99.2717 19.1181 99.4401 20.2043 99.7981 21.1675C100.156 22.1307 100.661 22.971 101.314 23.6473C101.967 24.3236 102.767 24.8565 103.693 25.2458C104.62 25.6147 105.672 25.8197 106.809 25.8197C108.873 25.8197 110.746 25.2049 112.473 23.9752C112.726 23.8113 112.768 23.5653 112.578 23.3399C112.304 22.93 111.82 22.2332 111.525 21.7823C111.273 21.3724 110.999 21.4749 110.788 21.6389C109.631 22.4381 108.409 22.848 107.146 22.848C106.072 22.848 105.23 22.5406 104.662 21.9053C104.072 21.27 103.798 20.3682 103.798 19.1591V19.0361C103.798 19.0361 110.304 19.0361 112.389 19.0361C113.126 19.0361 113.02 18.1139 113.02 18.1139C113.02 16.4948 112.852 15.1627 112.494 14.097ZM108.683 16.1055H103.841V16.044C103.841 14.9783 104.051 14.1585 104.493 13.5847C104.935 13.0108 105.546 12.7444 106.325 12.7444C107.146 12.7444 107.757 13.0518 108.157 13.6462C108.346 13.9331 108.473 14.2405 108.557 14.5684C108.62 14.8963 108.662 15.3677 108.662 15.9415V16.1055H108.683ZM22.3388 0.0790246C30.1079 0.529896 36.2558 7.21099 36.2558 14.8758C36.2558 22.5406 30.1079 29.2422 22.3388 29.6726C33.5818 30.6358 40.5298 22.9915 40.5298 14.8758C40.5298 6.78061 33.6029 -0.863706 22.3388 0.0790246ZM4.27405 14.8963C4.27405 7.23148 10.422 0.529896 18.191 0.0995187C7.0743 -0.904695 0 6.78061 0 14.8963C0 23.012 7.24273 30.8407 18.191 29.6931C10.422 29.2422 4.27405 22.5611 4.27405 14.8963ZM35.0557 14.8963C34.9714 6.94457 28.4235 0.488908 20.2544 0.488908C12.0853 0.488908 5.47416 6.94457 5.47416 14.8963C5.47416 21.8438 10.5272 27.6437 17.2225 28.9553C19.4543 29.3857 19.7701 23.8522 19.1595 20.1633C19.1385 20.1633 18.4858 20.1223 18.2542 20.1223C17.791 20.1018 17.3699 20.6142 17.0752 20.7166C16.5909 20.8806 16.5067 20.4297 16.1698 20.4297C15.8751 20.4297 15.454 20.8806 14.3381 20.6756C13.2011 20.4707 12.8432 19.4665 12.8432 19.4665L12.5063 19.3025C11.3483 19.0156 11.2852 17.8065 11.2852 17.7245C11.222 17.1302 12.2958 16.6793 12.001 16.4948C10.6957 15.6956 11.1167 15.0603 11.1378 15.0193C11.3062 14.5889 11.9379 13.6666 11.7063 13.5232C11.0746 13.1338 12.1274 10.818 13.0327 10.1826C13.1801 9.44485 13.9802 8.25619 14.7592 8.01026C14.7171 7.1905 15.9172 6.71913 15.9172 6.71913C16.7593 6.45271 16.1698 5.79689 17.77 5.89936C18.1489 5.91986 18.1279 5.50997 19.0543 5.48948C19.328 5.48948 19.6227 5.28454 20.4439 5.28454C21.8756 5.22306 21.8124 6.16579 22.2967 6.00183C22.9072 5.79689 24.9285 6.76012 25.139 8.76854C26.0443 8.70706 28.4446 11.2688 28.3814 13.1543C29.9605 14.8758 27.8129 16.4948 27.7287 16.8227C27.7919 17.0072 28.1077 17.786 27.9814 18.3803C27.834 19.0976 26.9076 19.8559 26.8655 19.8969C26.2128 20.3477 25.7496 20.8601 24.9706 20.7166C24.1705 20.5732 24.3179 19.8559 24.0863 19.6919C23.581 20.1428 22.802 20.5117 21.8335 20.4297C21.7071 20.4092 21.286 20.3682 21.2439 20.3682C20.7807 23.0735 20.8439 29.1192 22.802 29.1192C28.7183 28.197 35.1399 22.6226 35.0557 14.8963Z" fill="#FFFFFF"/>
</svg>
