<svg preserveAspectRatio="none" width="100%" height="100%" overflow="visible" style="display: block;" viewBox="0 0 11.7586 13.334" fill="none" xmlns="http://www.w3.org/2000/svg">
<path id="Icon" d="M5.87934 0C6.22441 0 6.50416 0.279972 6.50434 0.625V5.58398L10.8002 3.10645C11.0992 2.93398 11.4813 3.03694 11.6538 3.33594C11.8261 3.63491 11.7242 4.01701 11.4252 4.18945L7.13813 6.66113L11.4418 9.10547C11.7419 9.27582 11.8474 9.65688 11.6772 9.95703C11.5069 10.2571 11.1258 10.3625 10.8256 10.1924L6.50434 7.73926V12.709C6.50416 13.054 6.22441 13.334 5.87934 13.334C5.53431 13.3339 5.25451 13.054 5.25434 12.709V7.74805L0.95844 10.2266C0.659617 10.3989 0.277541 10.2966 0.104924 9.99805C-0.0675461 9.69905 0.0344381 9.31602 0.33344 9.14355L4.62153 6.66992L0.316838 4.22754C0.0166522 4.05714 -0.088914 3.67519 0.0814864 3.375C0.2519 3.07485 0.633855 2.97023 0.934026 3.14062L5.25434 5.59277V0.625C5.25451 0.280005 5.53431 5.38011e-05 5.87934 0Z" fill="#333333"/>
</svg>
