<svg preserveAspectRatio="none" width="100%" height="100%" overflow="visible" style="display: block;" viewBox="0 0 14.5834 14.1788" fill="none" xmlns="http://www.w3.org/2000/svg">
<g id="Icon">
<path id="Vector (Stroke)" fill-rule="evenodd" clip-rule="evenodd" d="M4.58937 7.86781e-06L6.7287 3.56551C6.9063 3.8615 6.81032 4.24541 6.51434 4.42301C6.21835 4.6006 5.83444 4.50463 5.65684 4.20864L4.62684 2.492L1.78164 7.57436L1.77491 7.58531C1.10792 8.66958 1.05183 10.0757 1.74965 11.2387C2.74218 12.8927 4.87821 13.4219 6.52189 12.4257C8.00083 11.5291 8.56383 9.88759 7.975 8.34695C7.85177 8.02451 8.01325 7.66323 8.33568 7.54C8.65811 7.41677 9.0194 7.57825 9.14263 7.90069C9.95393 10.0235 9.14886 12.2949 7.16985 13.4946C4.93221 14.8509 2.02562 14.1279 0.677801 11.8818C-0.268369 10.3049 -0.190539 8.40383 0.703266 6.94171L4.58937 7.86781e-06Z" fill="#333333"/>
<path id="Vector (Stroke)_2" fill-rule="evenodd" clip-rule="evenodd" d="M9.71763 0L13.9043 6.97767C15.2506 9.22294 14.5336 12.1395 12.2981 13.4946C11.3999 14.039 10.3915 14.2488 9.42012 14.1584C9.07643 14.1263 8.82377 13.8218 8.85579 13.4781C8.88781 13.1344 9.19238 12.8817 9.53607 12.9137C10.2491 12.9802 10.9884 12.8267 11.6501 12.4257C13.2946 11.4288 13.8264 9.27862 12.8324 7.62079C12.8324 7.62075 12.8324 7.62084 12.8324 7.62079L9.7551 2.49201L6.90992 7.57437L6.90318 7.58532C6.36288 8.46363 6.22352 9.55438 6.56082 10.5537C6.67121 10.8808 6.49557 11.2354 6.16852 11.3458C5.84147 11.4562 5.48685 11.2805 5.37646 10.9535C4.9188 9.59754 5.10745 8.12621 5.83154 6.94172L9.71763 0Z" fill="#333333"/>
</g>
</svg>
