<svg preserveAspectRatio="none" width="100%" height="100%" overflow="visible" style="display: block;" viewBox="0 0 14.833 15.667" fill="none" xmlns="http://www.w3.org/2000/svg">
<path id="Icon" d="M7.41699 0C10.5925 6.44255e-08 13.1668 2.57451 13.167 5.75V11.6709C14.0946 11.7146 14.833 12.4786 14.833 13.417V14.9072C14.8329 15.3269 14.4929 15.667 14.0732 15.667H0.759766C0.340372 15.6667 0.000126613 15.3267 0 14.9072V13.417C0 12.4785 0.739232 11.7144 1.66699 11.6709V5.75C1.66717 2.57451 4.24146 0 7.41699 0ZM1.75 13.167C1.61208 13.1672 1.5 13.279 1.5 13.417V14.167H13.333V13.417C13.333 13.2789 13.2211 13.167 13.083 13.167H1.75ZM7.41699 1.5C5.06989 1.5 3.16717 3.40294 3.16699 5.75V11.667H11.667V5.75C11.6668 3.40294 9.76409 1.5 7.41699 1.5ZM9.91699 4.16699C10.3312 4.16699 10.667 4.50278 10.667 4.91699C10.667 5.33121 10.3312 5.66699 9.91699 5.66699H4.91699C4.50278 5.66699 4.16699 5.33121 4.16699 4.91699C4.16699 4.50278 4.50278 4.16699 4.91699 4.16699H9.91699Z" fill="#333333"/>
</svg>
